<svg width="60" height="60" viewBox="0 0 60 60" fill="none" xmlns="http://www.w3.org/2000/svg">
<path d="M57.9229 17.3925C57.9229 7.8 48.1391 0 36.109 0H0V9.65H34.3922C39.8371 9.65 44.3452 13.065 44.4455 17.26C44.4738 18.2914 44.2422 19.3168 43.7643 20.2753C43.2864 21.2339 42.572 22.106 41.6635 22.84C40.7614 23.5784 39.6826 24.1648 38.4911 24.5642C37.2997 24.9635 36.0198 25.1679 34.7274 25.165H21.3283C21.1001 25.1657 20.8814 25.2383 20.72 25.3671C20.5587 25.4959 20.4676 25.6704 20.4668 25.8525V34.43C20.4668 34.58 20.5211 34.715 20.6297 34.835L43.3615 60H60L37.2149 34.765C48.6905 34.305 57.9229 26.615 57.9229 17.3925ZM14.0038 14.8075H0V60H14.0038V14.8075Z" fill="black"/>
</svg>
