<svg width="60" height="60" viewBox="0 0 60 60" fill="none" xmlns="http://www.w3.org/2000/svg">
<path d="M6 36C10.17 36 14.34 34.59 18 32.01C25.32 37.14 34.68 37.14 42 32.01C45.66 34.59 49.83 36 54 36H60V42H54C49.89 42 45.78 40.95 42 39C34.5 42.9 25.5 42.9 18 39C14.22 40.95 10.14 42 6 42H0V36H6ZM18 50.01C25.32 55.14 34.68 55.14 42 50.01C45.66 52.59 49.83 54 54 54H60V60H54C49.89 60 45.78 58.95 42 57C34.5 60.9 25.5 60.9 18 57C14.22 58.95 10.14 60 6 60H0V54H6C10.17 54 14.34 52.59 18 50.01ZM12 24V15H27V9H12V0L0 12" fill="black"/>
</svg>
